<?xml version="1.0" encoding="UTF-8" standalone="no"?>
<!-- Created with Inkscape (http://www.inkscape.org/) -->

<svg
   xmlns:dc="http://purl.org/dc/elements/1.1/"
   xmlns:cc="http://creativecommons.org/ns#"
   xmlns:rdf="http://www.w3.org/1999/02/22-rdf-syntax-ns#"
   xmlns:svg="http://www.w3.org/2000/svg"
   xmlns="http://www.w3.org/2000/svg"
   xmlns:sodipodi="http://sodipodi.sourceforge.net/DTD/sodipodi-0.dtd"
   xmlns:inkscape="http://www.inkscape.org/namespaces/inkscape"
   id="svg5606"
   version="1.1"
   inkscape:version="0.48.4 r9939"
   width="461.14826"
   height="220.53923"
   xml:space="preserve"
   sodipodi:docname="bete_a_cornes_201606.pdf"><metadata
     id="metadata5612"><rdf:RDF><cc:Work
         rdf:about=""><dc:format>image/svg+xml</dc:format><dc:type
           rdf:resource="http://purl.org/dc/dcmitype/StillImage" /><dc:title></dc:title></cc:Work></rdf:RDF></metadata><defs
     id="defs5610"><clipPath
       clipPathUnits="userSpaceOnUse"
       id="clipPath5622"><path
         d="m 109,74.431381 145,0 0,69.999999 -145,0 0,-69.999999 z"
         id="path5624" /></clipPath><mask
       maskUnits="userSpaceOnUse"
       x="0"
       y="0"
       width="1"
       height="1"
       id="mask5626"><g
         id="g5628"><g
           clip-path="url(#clipPath5622)"
           id="g5630"><path
             d="m 109,74.431381 145,0 0,69.999999 -145,0 0,-69.999999 z"
             style="fill:#000000;fill-opacity:0.8;fill-rule:nonzero;stroke:none"
             id="path5632" /></g></g></mask><clipPath
       clipPathUnits="userSpaceOnUse"
       id="clipPath5638"><path
         d="m 109,74.431381 145,0 0,69.999999 -145,0 0,-69.999999 z"
         id="path5640" /></clipPath><clipPath
       clipPathUnits="userSpaceOnUse"
       id="clipPath5642"><path
         d="m 109,75 145,0 0,70 -145,0 0,-70 z"
         id="path5644" /></clipPath><clipPath
       clipPathUnits="userSpaceOnUse"
       id="clipPath5664"><path
         d="m 224,107.43138 145,0 0,69 -145,0 0,-69 z"
         id="path5666" /></clipPath><mask
       maskUnits="userSpaceOnUse"
       x="0"
       y="0"
       width="1"
       height="1"
       id="mask5668"><g
         id="g5670"><g
           clip-path="url(#clipPath5664)"
           id="g5672"><path
             d="m 224,107.43138 145,0 0,69 -145,0 0,-69 z"
             style="fill:#000000;fill-opacity:0.8;fill-rule:nonzero;stroke:none"
             id="path5674" /></g></g></mask><clipPath
       clipPathUnits="userSpaceOnUse"
       id="clipPath5680"><path
         d="m 224,107.43138 145,0 0,69 -145,0 0,-69 z"
         id="path5682" /></clipPath><clipPath
       clipPathUnits="userSpaceOnUse"
       id="clipPath5684"><path
         d="m 224,108 145,0 0,69 -145,0 0,-69 z"
         id="path5686" /></clipPath><clipPath
       clipPathUnits="userSpaceOnUse"
       id="clipPath5706"><path
         d="m 0,115.43138 148,0 0,59 -148,0 0,-59 z"
         id="path5708" /></clipPath><mask
       maskUnits="userSpaceOnUse"
       x="0"
       y="0"
       width="1"
       height="1"
       id="mask5710"><g
         id="g5712"><g
           clip-path="url(#clipPath5706)"
           id="g5714"><path
             d="m 0,115.43138 148,0 0,59 -148,0 0,-59 z"
             style="fill:#000000;fill-opacity:0.8;fill-rule:nonzero;stroke:none"
             id="path5716" /></g></g></mask><clipPath
       clipPathUnits="userSpaceOnUse"
       id="clipPath5722"><path
         d="m 0,115.43138 148,0 0,59 -148,0 0,-59 z"
         id="path5724" /></clipPath><clipPath
       clipPathUnits="userSpaceOnUse"
       id="clipPath5726"><path
         d="m 0,116 148,0 0,59 -148,0 0,-59 z"
         id="path5728" /></clipPath><clipPath
       clipPathUnits="userSpaceOnUse"
       id="clipPath5748"><path
         d="m 82,-0.568619 215,0 0,75 -215,0 0,-75 z"
         id="path5750" /></clipPath><mask
       maskUnits="userSpaceOnUse"
       x="0"
       y="0"
       width="1"
       height="1"
       id="mask5752"><g
         id="g5754"><g
           clip-path="url(#clipPath5748)"
           id="g5756"><path
             d="m 82,-0.568619 215,0 0,75 -215,0 0,-75 z"
             style="fill:#000000;fill-opacity:0.8;fill-rule:nonzero;stroke:none"
             id="path5758" /></g></g></mask><clipPath
       clipPathUnits="userSpaceOnUse"
       id="clipPath5764"><path
         d="m 82,-0.568619 215,0 0,75 -215,0 0,-75 z"
         id="path5766" /></clipPath><clipPath
       clipPathUnits="userSpaceOnUse"
       id="clipPath5768"><path
         d="M 82,0 297,0 297,75 82,75 82,0 z"
         id="path5770" /></clipPath></defs><sodipodi:namedview
     pagecolor="#ffffff"
     bordercolor="#666666"
     borderopacity="1"
     objecttolerance="10"
     gridtolerance="10"
     guidetolerance="10"
     inkscape:pageopacity="0"
     inkscape:pageshadow="2"
     inkscape:window-width="1535"
     inkscape:window-height="876"
     id="namedview5608"
     showgrid="false"
     inkscape:zoom="1.847562"
     inkscape:cx="393.76604"
     inkscape:cy="52.56012"
     inkscape:window-x="65"
     inkscape:window-y="24"
     inkscape:window-maximized="1"
     inkscape:current-layer="g5614" /><g
     id="g5614"
     inkscape:groupmode="layer"
     inkscape:label="bete_a_cornes_201606"
     transform="matrix(1.25,0,0,-1.25,0,220.53923)"><path
       sodipodi:type="arc"
       style="opacity:0.8;color:#000000;fill:#00ff00;fill-opacity:1;fill-rule:nonzero;stroke:none;stroke-width:3;marker:none;visibility:visible;display:inline;overflow:visible;enable-background:accumulate"
       id="path2985"
       sodipodi:cx="315.71429"
       sodipodi:cy="446.64789"
       sodipodi:rx="90"
       sodipodi:ry="42.857143"
       d="m 405.71429,446.64789 a 90,42.857143 0 1 1 -0.0131,-0.73228"
       sodipodi:start="0"
       sodipodi:end="6.2660981"
       sodipodi:open="true"
       transform="matrix(0.8,0,0,-0.8,-74.60549,471.11012)" /><path
       transform="matrix(0.8,0,0,-0.8,44.498922,501.89971)"
       sodipodi:type="arc"
       style="opacity:0.8;color:#000000;fill:#ff7f2a;fill-opacity:1;fill-rule:nonzero;stroke:none;stroke-width:3;marker:none;visibility:visible;display:inline;overflow:visible;enable-background:accumulate"
       id="path2985-1"
       sodipodi:cx="315.71429"
       sodipodi:cy="446.64789"
       sodipodi:rx="90"
       sodipodi:ry="42.857143"
       d="m 405.71429,446.64789 a 90,42.857143 0 1 1 -0.0131,-0.73228"
       sodipodi:start="0"
       sodipodi:end="6.2660981"
       sodipodi:open="true" /><path
       transform="matrix(0.84008453,0,0,-0.72158813,-190.68939,469.19609)"
       sodipodi:type="arc"
       style="opacity:0.8;color:#000000;fill:#2bdcd6;fill-opacity:1;fill-rule:nonzero;stroke:none;stroke-width:3;marker:none;visibility:visible;display:inline;overflow:visible;enable-background:accumulate"
       id="path2985-1-7"
       sodipodi:cx="315.71429"
       sodipodi:cy="446.64789"
       sodipodi:rx="90"
       sodipodi:ry="42.857143"
       d="m 405.71429,446.64789 a 90,42.857143 0 1 1 -0.0131,-0.73228"
       sodipodi:start="0"
       sodipodi:end="6.2660981"
       sodipodi:open="true" /><rect
       style="opacity:0.8;color:#000000;fill:none;stroke:#000000;stroke-width:2.6469872;stroke-opacity:1;marker:none;visibility:visible;display:inline;overflow:visible;enable-background:accumulate"
       id="rect3791"
       width="209.55272"
       height="71.238495"
       x="78.152069"
       y="-76.699768"
       transform="scale(1,-1)" /><g
       id="g5620" /><g
       id="g5634"
       mask="url(#mask5626)"><g
         id="g5636" /><g
         id="g5646"><g
           clip-path="url(#clipPath5638)"
           id="g5648"><g
             transform="translate(0,-0.568619)"
             id="g5650"><g
               id="g5652"><g
                 clip-path="url(#clipPath5642)"
                 id="g5654"><g
                   id="g5656"><path
                     d="m 253.793,110.086 c 0,-18.934 -32.234,-34.285 -72,-34.285 -39.762,0 -72,15.351 -72,34.285 0,18.937 32.238,34.289 72,34.289 39.285,0 71.32,-14.996 71.992,-33.703"
                     style="fill:#00ff00;fill-opacity:1;fill-rule:nonzero;stroke:none"
                     id="path5658"
                     inkscape:connector-curvature="0" /></g></g></g></g></g></g></g><text
       id="text5788"
       transform="scale(1,-1)"
       x="37.251377"
       y="-158.66499"><tspan
         id="tspan5792"
         sodipodi:role="line"
         style="font-size:12.80000019px;font-variant:normal;font-weight:normal;writing-mode:lr-tb;fill:#000000;fill-opacity:1;fill-rule:nonzero;stroke:none;font-family:DejaVu Sans;-inkscape-font-specification:DejaVuSans"
         x="37.251377"
         y="-158.66499">Qui sert-il ?</tspan></text>
<text
       id="text5794"
       transform="scale(0.99872647,-1.0012751)"
       x="86.228172"
       y="-55.216648"
       style="font-size:11.98471737px"><tspan
         id="tspan5796"
         sodipodi:role="line"
         y="-55.216648"
         x="86.228172 96.084175 103.91777 112.02017 118.67617 122.73377 130.84897 138.98978 146.86177 150.40738 154.46498 162.58017 170.68257 175.70018 179.75777"
         style="font-size:12.80000019px;font-variant:normal;font-weight:normal;writing-mode:lr-tb;fill:#000000;fill-opacity:1;fill-rule:nonzero;stroke:none;font-family:DejaVu Sans;-inkscape-font-specification:DejaVuSans">Dans quel but ?</tspan></text>
<g
       transform="matrix(1,0,0,-1,0,176.43138)"
       id="g5798"><path
         inkscape:connector-curvature="0"
         id="path5800"
         style="fill:none;stroke:#000000;stroke-width:0.80000001;stroke-linecap:butt;stroke-linejoin:miter;stroke-miterlimit:4;stroke-opacity:1;stroke-dasharray:none"
         d="m 147.949,32.43 c 22,4.144 43.004,9.324 76.992,0.961" /></g><g
       transform="matrix(1,0,0,-1,0,176.43138)"
       id="g5802"><path
         inkscape:connector-curvature="0"
         id="path5804"
         style="fill:none;stroke:#000000;stroke-width:0.80000001;stroke-linecap:butt;stroke-linejoin:miter;stroke-miterlimit:4;stroke-opacity:1;stroke-dasharray:none"
         d="m 215.133,35.633 c 11.371,19.601 52.18344,24.214668 13.07444,64.39867"
         sodipodi:nodetypes="cc" /></g><text
       id="text5806"
       transform="scale(1,-1)"
       x="148.70396"
       y="-121.32977"><tspan
         id="tspan5808"
         sodipodi:role="line"
         y="-121.32977"
         x="148.70396 155.60316 163.47516 167.53276 175.64796 180.65276 188.47356 196.58876 204.69116 208.23676"
         style="font-size:12.80000019px;font-variant:normal;font-weight:normal;writing-mode:lr-tb;fill:#000000;fill-opacity:1;fill-rule:nonzero;stroke:none;font-family:DejaVu Sans;-inkscape-font-specification:DejaVuSans">Le produit</tspan></text>
<text
       id="text5810"
       transform="scale(1,-1)"
       x="2.808388"
       y="-139.6057"><tspan
         id="tspan5822"
         sodipodi:role="line"
         style="font-size:9.60000038px;font-variant:normal;font-weight:normal;writing-mode:lr-tb;fill:#000000;fill-opacity:1;fill-rule:nonzero;stroke:none;font-family:DejaVu Sans;-inkscape-font-specification:DejaVuSans"
         x="2.808388"
         y="-139.6057" /></text>
<flowRoot
       xml:space="preserve"
       id="flowRoot5978"
       style="font-size:12px;font-style:normal;font-weight:normal;line-height:125%;letter-spacing:0px;word-spacing:0px;fill:#000000;fill-opacity:1;stroke:none;font-family:Sans"
       transform="matrix(0.8,0,0,-0.8,105.21974,163.00829)"><flowRegion
         id="flowRegion5980"><rect
           id="rect5982"
           width="123.94713"
           height="44.924061"
           x="-90.389389"
           y="13.780272" /></flowRegion><flowPara
         id="flowPara5984">Décideur (individu ou groupe)</flowPara></flowRoot><flowRoot
       xml:space="preserve"
       id="flowRoot5986"
       style="font-size:12px;font-style:normal;font-weight:normal;line-height:125%;letter-spacing:0px;word-spacing:0px;fill:#000000;fill-opacity:1;stroke:none;font-family:Sans"
       transform="matrix(0.8,0,0,-0.8,-125.57089,182.06042)"><flowRegion
         id="flowRegion5988"><rect
           id="rect5990"
           width="89.306862"
           height="31.392721"
           x="489.83472"
           y="44.631741" /></flowRegion><flowPara
         id="flowPara5992">Son système d'information</flowPara></flowRoot><flowRoot
       xml:space="preserve"
       id="flowRoot5994"
       style="font-size:16px;font-style:normal;font-weight:normal;line-height:125%;letter-spacing:0px;word-spacing:0px;fill:#000000;fill-opacity:1;stroke:none;font-family:Sans"
       transform="matrix(0.8,0,0,-0.8,-140.726,173.40035)"><flowRegion
         id="flowRegion5996"><rect
           id="rect5998"
           width="139.10225"
           height="33.016483"
           x="484.42218"
           y="7.2852254"
           style="font-size:16px" /></flowRegion><flowPara
         id="flowPara6000">Sur quoi agit-il ?</flowPara></flowRoot><flowRoot
       xml:space="preserve"
       id="flowRoot6004"
       style="font-size:12px;font-style:normal;font-weight:normal;line-height:125%;letter-spacing:0px;word-spacing:0px;fill:#000000;fill-opacity:1;stroke:none;font-family:Sans"
       transform="matrix(0.8,0,0,-0.8,-273.65793,167.33831)"><flowRegion
         id="flowRegion6006"><rect
           id="rect6008"
           width="159.12862"
           height="67.115479"
           x="490.37595"
           y="68.988159" /></flowRegion><flowPara
         id="flowPara6010">l'Analyse en Cycle de Vie</flowPara></flowRoot><flowRoot
       xml:space="preserve"
       id="flowRoot6032"
       style="font-size:12px;font-style:normal;font-weight:normal;line-height:125%;letter-spacing:0px;word-spacing:0px;fill:#000000;fill-opacity:1;stroke:none;font-family:Sans"
       transform="matrix(0.8,0,0,-0.8,-295.74109,174.69937)"><flowRegion
         id="flowRegion6034"><rect
           id="rect6036"
           width="243.02293"
           height="61.702923"
           x="479.55087"
           y="159.37755" /></flowRegion><flowPara
         id="flowPara6044">Produire une représentation exploitable </flowPara><flowPara
         id="flowPara6046">de la préférence du décideur parmi des descriptions disponibles d'alternatives.</flowPara><flowPara
         id="flowPara6048" /></flowRoot></g></svg>