<?xml version="1.0" encoding="UTF-8" standalone="no"?>
<!-- Created with Inkscape (http://www.inkscape.org/) -->

<svg
   xmlns:dc="http://purl.org/dc/elements/1.1/"
   xmlns:cc="http://creativecommons.org/ns#"
   xmlns:rdf="http://www.w3.org/1999/02/22-rdf-syntax-ns#"
   xmlns:svg="http://www.w3.org/2000/svg"
   xmlns="http://www.w3.org/2000/svg"
   xmlns:sodipodi="http://sodipodi.sourceforge.net/DTD/sodipodi-0.dtd"
   xmlns:inkscape="http://www.inkscape.org/namespaces/inkscape"
   width="210mm"
   height="297mm"
   id="svg2"
   version="1.1"
   inkscape:version="0.48.4 r9939"
   sodipodi:docname="Nouveau document 1">
  <defs
     id="defs4">
    <marker
       inkscape:stockid="Arrow1Lend"
       orient="auto"
       refY="0.0"
       refX="0.0"
       id="Arrow1Lend"
       style="overflow:visible;">
      <path
         id="path3871"
         d="M 0.0,0.0 L 5.0,-5.0 L -12.5,0.0 L 5.0,5.0 L 0.0,0.0 z "
         style="fill-rule:evenodd;stroke:#000000;stroke-width:1.0pt;"
         transform="scale(0.8) rotate(180) translate(12.5,0)" />
    </marker>
    <marker
       inkscape:stockid="Arrow1Lstart"
       orient="auto"
       refY="0.0"
       refX="0.0"
       id="Arrow1Lstart"
       style="overflow:visible">
      <path
         id="path3868"
         d="M 0.0,0.0 L 5.0,-5.0 L -12.5,0.0 L 5.0,5.0 L 0.0,0.0 z "
         style="fill-rule:evenodd;stroke:#000000;stroke-width:1.0pt"
         transform="scale(0.8) translate(12.5,0)" />
    </marker>
    <marker
       inkscape:stockid="Arrow1Lstart"
       orient="auto"
       refY="0"
       refX="0"
       id="Arrow1Lstart-8"
       style="overflow:visible">
      <path
         inkscape:connector-curvature="0"
         id="path3868-7"
         d="M 0,0 5,-5 -12.5,0 5,5 0,0 z"
         style="fill-rule:evenodd;stroke:#000000;stroke-width:1pt"
         transform="matrix(0.8,0,0,0.8,10,0)" />
    </marker>
    <marker
       inkscape:stockid="Arrow1Lend"
       orient="auto"
       refY="0"
       refX="0"
       id="Arrow1Lend-9"
       style="overflow:visible">
      <path
         inkscape:connector-curvature="0"
         id="path3871-6"
         d="M 0,0 5,-5 -12.5,0 5,5 0,0 z"
         style="fill-rule:evenodd;stroke:#000000;stroke-width:1pt"
         transform="matrix(-0.8,0,0,-0.8,-10,0)" />
    </marker>
  </defs>
  <sodipodi:namedview
     id="base"
     pagecolor="#ffffff"
     bordercolor="#666666"
     borderopacity="1.0"
     inkscape:pageopacity="0.0"
     inkscape:pageshadow="2"
     inkscape:zoom="0.98994949"
     inkscape:cx="317.90385"
     inkscape:cy="672.46904"
     inkscape:document-units="px"
     inkscape:current-layer="layer1"
     showgrid="false"
     inkscape:window-width="1535"
     inkscape:window-height="876"
     inkscape:window-x="65"
     inkscape:window-y="24"
     inkscape:window-maximized="1" />
  <metadata
     id="metadata7">
    <rdf:RDF>
      <cc:Work
         rdf:about="">
        <dc:format>image/svg+xml</dc:format>
        <dc:type
           rdf:resource="http://purl.org/dc/dcmitype/StillImage" />
        <dc:title></dc:title>
      </cc:Work>
    </rdf:RDF>
  </metadata>
  <g
     inkscape:label="Calque 1"
     inkscape:groupmode="layer"
     id="layer1">
    <rect
       style="opacity:0.60215053;fill:none;stroke:#000000;stroke-width:4;stroke-miterlimit:10;stroke-opacity:1;stroke-dasharray:none"
       id="rect2985"
       width="165.71428"
       height="200"
       x="137.14285"
       y="303.79074" />
    <path
       style="fill:none;stroke:#000000;stroke-width:1px;stroke-linecap:butt;stroke-linejoin:miter;stroke-opacity:1"
       d="m 162.14285,698.07647 0,-144.28571 -55.71428,0 L 220.71428,509.50504 335,553.79076 l -57.14286,0 0,144.28571 z"
       id="path2987"
       inkscape:connector-curvature="0"
       sodipodi:nodetypes="cccccccc" />
    <path
       style="fill:none;stroke:#000000;stroke-width:0.42119563px;stroke-linecap:butt;stroke-linejoin:miter;stroke-opacity:1"
       d="m 152.28025,296.9373 0,-84.60954 -16.85537,0 L 170,186.3585 l 34.57512,25.96926 -17.28756,0 0,84.60954 z"
       id="path2987-6"
       inkscape:connector-curvature="0"
       sodipodi:nodetypes="cccccccc" />
    <path
       style="fill:none;stroke:#000000;stroke-width:0.42119563px;stroke-linecap:butt;stroke-linejoin:miter;stroke-opacity:1"
       d="m 255.1374,296.22301 0,-84.60954 -16.85537,0 34.57512,-25.96926 34.57512,25.96926 -17.28756,0 0,84.60954 z"
       id="path2987-6-5"
       inkscape:connector-curvature="0"
       sodipodi:nodetypes="cccccccc" />
    <g
       id="g3088"
       transform="matrix(1.281724,0,0,1.1229914,-110.7189,-16.782424)">
      <rect
         y="228.45503"
         x="407.74127"
         height="76.971535"
         width="51.218765"
         id="rect2985-4"
         style="opacity:0.60215053;fill:none;stroke:#000000;stroke-width:1.37957287;stroke-miterlimit:10;stroke-opacity:1;stroke-dasharray:none" />
      <path
         sodipodi:nodetypes="cccccccc"
         inkscape:connector-curvature="0"
         id="path2987-7"
         d="m 415.46825,380.19895 0,-55.52947 -17.22011,0 35.32329,-17.04369 35.32329,17.04369 -17.66164,0 0,55.52947 z"
         style="fill:none;stroke:#000000;stroke-width:0.34489322px;stroke-linecap:butt;stroke-linejoin:miter;stroke-opacity:1" />
      <path
         sodipodi:nodetypes="cccccccc"
         inkscape:connector-curvature="0"
         id="path2987-6-0"
         d="m 412.41992,225.81746 0,-32.56263 -5.20963,0 10.68643,-9.99447 10.68644,9.99447 -5.34322,0 0,32.56263 z"
         style="fill:none;stroke:#000000;stroke-width:0.14526752px;stroke-linecap:butt;stroke-linejoin:miter;stroke-opacity:1" />
      <path
         sodipodi:nodetypes="cccccccc"
         inkscape:connector-curvature="0"
         id="path2987-6-5-0"
         d="m 444.21089,225.54256 0,-32.56263 -5.20964,0 10.68644,-9.99448 10.68643,9.99448 -5.34322,0 0,32.56263 z"
         style="fill:none;stroke:#000000;stroke-width:0.14526752px;stroke-linecap:butt;stroke-linejoin:miter;stroke-opacity:1" />
    </g>
    <g
       id="g3083"
       transform="matrix(0.41505912,0,0,0.35328765,363.98435,122.83757)">
      <rect
         y="95.576454"
         x="543.57141"
         height="200"
         width="165.71428"
         id="rect2985-46"
         style="opacity:0.60215053;fill:none;stroke:#000000;stroke-width:4;stroke-miterlimit:10;stroke-opacity:1;stroke-dasharray:none" />
      <path
         sodipodi:nodetypes="cccccccc"
         inkscape:connector-curvature="0"
         id="path2987-1"
         d="m 568.57142,489.86218 0,-144.28571 -55.71428,0 114.28571,-44.28572 114.28572,44.28572 -57.14286,0 0,144.28571 z"
         style="fill:none;stroke:#000000;stroke-width:1px;stroke-linecap:butt;stroke-linejoin:miter;stroke-opacity:1" />
      <path
         sodipodi:nodetypes="cccccccc"
         inkscape:connector-curvature="0"
         id="path2987-1-8"
         d="m 599.68434,85.399714 0,-144.561759 -22.72187,0 46.60896,-44.370445 46.60896,44.370445 -23.30448,0 0,144.561759 z"
         style="fill:none;stroke:#000000;stroke-width:0.63922507px;stroke-linecap:butt;stroke-linejoin:miter;stroke-opacity:1" />
    </g>
    <path
       style="fill:none;stroke:#000000;stroke-width:1px;stroke-linecap:butt;stroke-linejoin:miter;stroke-opacity:1;marker-start:url(#Arrow1Lstart);marker-end:url(#Arrow1Lend)"
       d="M 277.14286,258.07647 C 372.34951,231.80019 424.28571,216.6479 424.28571,216.6479"
       id="path3094"
       inkscape:connector-curvature="0"
       sodipodi:nodetypes="cc" />
    <rect
       style="opacity:0.60215053;fill:none;stroke:#000000;stroke-width:4;stroke-miterlimit:10;stroke-opacity:1;stroke-dasharray:none"
       id="rect4494"
       width="103.03556"
       height="256.57874"
       x="393.9798"
       y="171.50917" />
    <path
       style="fill:none;stroke:#000000;stroke-width:1px;stroke-linecap:butt;stroke-linejoin:miter;stroke-opacity:1;marker-start:url(#Arrow1Lstart);marker-end:url(#Arrow1Lend)"
       d="M 461.74851,217.43196 626.06395,116.40439"
       id="path3094-9"
       inkscape:connector-curvature="0"
       sodipodi:nodetypes="cc" />
    <path
       style="fill:none;stroke:#000000;stroke-width:1px;stroke-linecap:butt;stroke-linejoin:miter;stroke-opacity:1"
       d="m 219.2031,171.50916 0,125.25892 122.04571,0 0,412.14224 -242.355386,0 0,-537.40116 c 43.436556,0 76.873116,0 120.309676,0 z"
       id="path4526"
       inkscape:connector-curvature="0"
       sodipodi:nodetypes="ccccccc" />
  </g>
</svg>
